<svg xmlns="http://www.w3.org/2000/svg" xmlns:xlink="http://www.w3.org/1999/xlink" width="512" height="232" viewBox="0 0 512 232">
    <defs>
        <path id="a" d="M254 0c35.75 0 65.884 24.052 75.1 56.858H356a8 8 0 0 1 8 8v162H0v-162a8 8 0 0 1 8-8h170.9C188.115 24.052 218.25 0 254 0z"/>
        <path id="c" d="M.857.857h364l.143 132H1z"/>
        <circle id="f" cx="255" cy="-17" r="78"/>
        <filter id="e" width="224.4%" height="224.4%" x="-62.2%" y="-60.9%" filterUnits="objectBoundingBox">
            <feOffset dy="2" in="SourceAlpha" result="shadowOffsetOuter1"/>
            <feGaussianBlur in="shadowOffsetOuter1" result="shadowBlurOuter1" stdDeviation="32"/>
            <feColorMatrix in="shadowBlurOuter1" result="shadowMatrixOuter1" values="0 0 0 0 0.381110312 0 0 0 0 0.697860054 0 0 0 0 0.485917212 0 0 0 1 0"/>
            <feOffset dy="2" in="SourceAlpha" result="shadowOffsetOuter2"/>
            <feGaussianBlur in="shadowOffsetOuter2" result="shadowBlurOuter2" stdDeviation="8"/>
            <feColorMatrix in="shadowBlurOuter2" result="shadowMatrixOuter2" values="0 0 0 0 0.0715520315 0 0 0 0 0.602156929 0 0 0 0 0.248420331 0 0 0 0.160402098 0"/>
            <feMerge>
                <feMergeNode in="shadowMatrixOuter1"/>
                <feMergeNode in="shadowMatrixOuter2"/>
            </feMerge>
        </filter>
        <path id="g" d="M.857.857h364v96h-364z"/>
        <circle id="j" cx="255" cy="79" r="78"/>
        <filter id="i" width="224.4%" height="224.4%" x="-62.2%" y="-60.9%" filterUnits="objectBoundingBox">
            <feOffset dy="2" in="SourceAlpha" result="shadowOffsetOuter1"/>
            <feGaussianBlur in="shadowOffsetOuter1" result="shadowBlurOuter1" stdDeviation="32"/>
            <feColorMatrix in="shadowBlurOuter1" result="shadowMatrixOuter1" values="0 0 0 0 0.196078431 0 0 0 0 0.211764706 0 0 0 0 0.247058824 0 0 0 0.52 0"/>
            <feOffset dy="2" in="SourceAlpha" result="shadowOffsetOuter2"/>
            <feGaussianBlur in="shadowOffsetOuter2" result="shadowBlurOuter2" stdDeviation="8"/>
            <feColorMatrix in="shadowBlurOuter2" result="shadowMatrixOuter2" values="0 0 0 0 0.196078431 0 0 0 0 0.211764706 0 0 0 0 0.247058824 0 0 0 0.16 0"/>
            <feMerge>
                <feMergeNode in="shadowMatrixOuter1"/>
                <feMergeNode in="shadowMatrixOuter2"/>
            </feMerge>
        </filter>
        <path id="k" d="M.857.857h364l.143 60H1z"/>
        <circle id="n" cx="255" cy="81" r="78"/>
        <filter id="m" width="103.8%" height="103.8%" x="-1.9%" y="-1.9%" filterUnits="objectBoundingBox">
            <feOffset in="SourceAlpha" result="shadowOffsetOuter1"/>
            <feGaussianBlur in="shadowOffsetOuter1" result="shadowBlurOuter1" stdDeviation="1"/>
            <feColorMatrix in="shadowBlurOuter1" values="0 0 0 0 0.196078431 0 0 0 0 0.211764706 0 0 0 0 0.247058824 0 0 0 0.163461538 0"/>
        </filter>
        <circle id="o" cx="78.143" cy="78" r="78"/>
        <linearGradient id="q" x1="50%" x2="50%" y1="0%" y2="100%">
            <stop offset="0%" stop-color="#32363F" stop-opacity="0"/>
            <stop offset="55.281%" stop-color="#32363F" stop-opacity=".243"/>
            <stop offset="100%" stop-color="#32363F" stop-opacity=".64"/>
        </linearGradient>
    </defs>
    <g fill="none" fill-rule="evenodd">
        <path fill="#FFF" d="M85 63h344a8 8 0 0 1 8 8v160H77V71a8 8 0 0 1 8-8z"/>
        <path fill="#CBF7D8" d="M83 99h348v132H83z"/>
        <rect width="193.5" height="24" x="117" y="69" fill="#D6D8DA" opacity=".5" rx="12"/>
        <path fill="#EA4335" d="M94.044 79.722l-2.861-4.957A9.98 9.98 0 0 1 99 71.001a9.995 9.995 0 0 1 8.604 4.902h-8.16a5.126 5.126 0 0 0-5.4 3.82z"/>
        <path fill="#FCBC05" d="M102.58 77.348h5.732a9.973 9.973 0 0 1 .688 3.653c0 5.485-4.416 9.937-9.887 9.998l4.09-7.083a5.102 5.102 0 0 0-.623-6.567z"/>
        <path fill="#34A853" d="M100.37 85.931l-2.862 4.959C92.693 90.17 89 86.016 89 81c0-1.78.466-3.453 1.283-4.902l4.083 7.071a5.124 5.124 0 0 0 6.005 2.762z"/>
        <path fill="#4285F4" d="M95.367 81A3.637 3.637 0 0 1 99 77.369 3.637 3.637 0 0 1 102.633 81 3.637 3.637 0 0 1 99 84.634 3.637 3.637 0 0 1 95.367 81z"/>
        <path fill="#5D6165" d="M130.625 86.191v-6.507c0-.439.364-.809.813-.809h.812V77.25A3.253 3.253 0 0 1 135.5 74a3.254 3.254 0 0 1 3.25 3.25v1.625h.813c.451 0 .812.362.812.809v6.507a.817.817 0 0 1-.815.809h-8.12a.815.815 0 0 1-.815-.809zm3.25-8.535c0-1.12.729-2.031 1.625-2.031s1.625.911 1.625 2.031v1.219h-3.25v-1.219zm1.625 3.25a1.213 1.213 0 1 1 .61 2.267v1.999a.61.61 0 0 1-1.219 0v-1.999a1.21 1.21 0 0 1-.61-1.048 1.22 1.22 0 0 1 1.219-1.219z"/>
        <text fill="#32363F" font-family="Lato-Regular, Lato" font-size="12">
            <tspan x="146.192" y="85">https://</tspan>
        </text>
        <circle cx="419" cy="82.143" r="3.857" fill="#95999D"/>
        <circle cx="406.143" cy="82.143" r="3.857" fill="#95999D"/>
        <circle cx="393.286" cy="82.143" r="3.857" fill="#95999D"/>
        <path fill="#35CE68" d="M231.828 191.913c-1.562-1.833-4.094-1.833-5.656 0-1.563 1.832-1.563 4.803 0 6.636l12 14.077c1.562 1.832 4.094 1.832 5.656 0l44-51.616c1.563-1.832 1.563-4.803 0-6.636-1.562-1.832-4.094-1.832-5.656 0L241 202.672l-9.172-10.76z"/>
        <path fill="#D6D8DA" fill-rule="nonzero" d="M437 71a8 8 0 0 0-7.75-7.996L429 63H85a8 8 0 0 0-7.996 7.75L77 71v160h-2V71c0-5.43 4.327-9.848 9.72-9.996L85 61h344c5.43 0 9.848 4.327 9.996 9.72L439 71v160h-2V71z"/>
        <g transform="translate(75 4.143)">
            <mask id="b" fill="#fff">
                <use xlink:href="#a"/>
            </mask>
            <g mask="url(#b)">
                <g transform="translate(-1 94)">
                    <mask id="d" fill="#fff">
                        <use xlink:href="#c"/>
                    </mask>
                    <g mask="url(#d)">
                        <use fill="#000" filter="url(#e)" xlink:href="#f"/>
                        <use fill="#FFF" xlink:href="#f"/>
                    </g>
                </g>
            </g>
            <g mask="url(#b)">
                <g transform="translate(-1 -2)">
                    <mask id="h" fill="#fff">
                        <use xlink:href="#g"/>
                    </mask>
                    <g mask="url(#h)">
                        <use fill="#000" filter="url(#i)" xlink:href="#j"/>
                        <use fill="#FFF" xlink:href="#j"/>
                    </g>
                </g>
            </g>
        </g>
        <g>
            <g transform="translate(74 .143)">
                <mask id="l" fill="#fff">
                    <use xlink:href="#k"/>
                </mask>
                <g mask="url(#l)">
                    <use fill="#000" filter="url(#m)" xlink:href="#n"/>
                    <use fill="#FFF" xlink:href="#n"/>
                </g>
            </g>
            <g transform="translate(250.857 3)">
                <mask id="p" fill="#fff">
                    <use xlink:href="#o"/>
                </mask>
                <use fill="#FFF" xlink:href="#o"/>
                <path fill="#CBF7D8" d="M-135.607 115.554H293.5v157.5h-429.107z" mask="url(#p)"/>
                <g mask="url(#p)">
                    <g transform="translate(-263.571 34.571)">
                        <path fill="#FFF" d="M.714 3.429h625v80h-625z"/>
                        <path fill="#D6D8DA" d="M263.714.429h156v2h-156z" opacity=".635"/>
                        <rect width="327" height="60" x=".714" y="13.429" fill="#D6D8DA" opacity=".504" rx="30"/>
                        <g fill-rule="nonzero">
                            <path fill="#F1F3F4" d="M484.75 15.25c-14.194 0-25.714 11.52-25.714 25.714 0 14.195 11.52 25.715 25.714 25.715 14.194 0 25.714-11.52 25.714-25.715 0-14.194-11.52-25.714-25.714-25.714z"/>
                            <path fill="#95999D" d="M484.75 43.279c5.117 0 15.351 2.802 15.429 7.92-3.318 4.988-9 8.28-15.429 8.28s-12.111-3.292-15.429-8.28c.078-5.118 10.286-7.92 15.429-7.92zm0-20.315a7.704 7.704 0 0 1 7.714 7.715 7.704 7.704 0 0 1-7.714 7.714 7.704 7.704 0 0 1-7.714-7.714 7.704 7.704 0 0 1 7.714-7.715z"/>
                        </g>
                        <path fill="#95999D" fill-rule="nonzero" d="M307.714 39.86l-11.504-.979-4.496-10.452-4.496 10.468-11.504.963 8.736 7.469-2.624 11.1 9.888-5.89 9.888 5.89-2.608-11.1 8.72-7.469zm-16 9.726l-6.016 3.585 1.6-6.758-5.312-4.548 7.008-.6 2.72-6.363 2.736 6.38 7.008.6-5.312 4.547 1.6 6.757-6.032-3.6z"/>
                        <path fill="#95999D" d="M356.542 63.43c-8.178 0-14.828-6.5-14.828-14.49 0-3.811 1.501-7.41 4.23-10.134a14.875 14.875 0 0 1 8.833-4.253c.395-3.273 1.912-6.298 4.353-8.633 2.788-2.666 6.47-4.131 10.37-4.131 3.898 0 7.582 1.465 10.37 4.13 2.43 2.325 3.943 5.334 4.348 8.589 7.554.661 13.496 6.881 13.496 14.432 0 7.99-6.654 14.49-14.829 14.49h-26.343z"/>
                        <path fill="#FFF" stroke="#FFF" d="M378.434 48.89c-1.05-.648-1.103-1.837-1.105-1.89-.008-.323-.287-.577-.63-.572-.342.006-.613.273-.607.594.002.043.02.601.302 1.26-3.74 3.346-9.618 3.35-13.366.02.29-.668.308-1.236.308-1.279.007-.32-.264-.586-.604-.594a.61.61 0 0 0-.633.57c0 .048-.05 1.242-1.104 1.89a.566.566 0 0 0-.18.81.643.643 0 0 0 .856.17c.27-.166.497-.357.687-.559 2.082 1.77 4.712 2.656 7.343 2.656 2.637 0 5.273-.889 7.359-2.667.19.204.42.399.698.57a.64.64 0 0 0 .856-.171.567.567 0 0 0-.18-.81v.002z"/>
                    </g>
                </g>
                <path fill="#FFF" fill-rule="nonzero" d="M78.143 0c43.078 0 78 34.922 78 78s-34.922 78-78 78-78-34.922-78-78 34.922-78 78-78zm0 2c-41.974 0-76 34.026-76 76s34.026 76 76 76c41.973 0 76-34.026 76-76s-34.027-76-76-76z" mask="url(#p)"/>
            </g>
        </g>
        <path fill="#D6D8DA" d="M0 231h512v1H0z"/>
    </g>
</svg>
