<svg xmlns="http://www.w3.org/2000/svg" xmlns:xlink="http://www.w3.org/1999/xlink" viewBox="0 0 512 232"><defs><linearGradient id="a" x1="50%" x2="50%" y1="0%" y2="100%"><stop offset="0%" stop-color="#9848FD"/><stop offset="100%" stop-color="#5833B2"/></linearGradient><linearGradient id="b" x1="50%" x2="50%" y1="100%" y2="0%"><stop offset="0%" stop-color="#E80070"/><stop offset="30.96%" stop-color="#FF6119"/><stop offset="100%" stop-color="#FFEB2F"/></linearGradient><path id="c" d="M254 0a78.03 78.03 0 0 1 75.1 56.86H356a8 8 0 0 1 8 8v162H0v-162a8 8 0 0 1 8-8h170.9A78.03 78.03 0 0 1 254 0z"/><radialGradient id="d" cx="69.46%" cy="-14.95%" r="87.92%" fx="69.46%" fy="-14.95%" gradientTransform="matrix(0 1 -.3625 0 .64 -.844)"><stop offset="0%" stop-color="#61B27C"/><stop offset="64.61%" stop-color="#61B27C" stop-opacity=".64"/><stop offset="75.93%" stop-color="#61B27C" stop-opacity=".24"/><stop offset="85.75%" stop-color="#61B27C" stop-opacity=".08"/><stop offset="100%" stop-color="#61B27C" stop-opacity="0"/></radialGradient><radialGradient id="f" cx="52.6%" cy="81.82%" r="126.49%" fx="52.6%" fy="81.82%" gradientTransform="matrix(0 1 -.4138 0 .865 .292)"><stop offset="0%" stop-color="#32363F"/><stop offset="62.96%" stop-color="#32363F" stop-opacity=".48"/><stop offset="73.25%" stop-color="#32363F" stop-opacity=".24"/><stop offset="100%" stop-color="#32363F" stop-opacity="0"/></radialGradient><polygon id="g" points=".857 .857 364.857 .857 365 60.857 1 60.857"/><circle id="j" cx="255" cy="81" r="78"/><filter id="i" width="103.8%" height="103.8%" x="-1.9%" y="-1.9%" filterUnits="objectBoundingBox"><feOffset in="SourceAlpha" result="shadowOffsetOuter1"/><feGaussianBlur in="shadowOffsetOuter1" result="shadowBlurOuter1" stdDeviation="1"/><feColorMatrix in="shadowBlurOuter1" values="0 0 0 0 0.196078431 0 0 0 0 0.211764706 0 0 0 0 0.247058824 0 0 0 0.163461538 0"/></filter><circle id="k" cx="78.14" cy="78" r="78"/><linearGradient id="m" x1="50%" x2="50%" y1="0%" y2="100%"><stop offset="0%" stop-color="#32363F" stop-opacity="0"/><stop offset="55.28%" stop-color="#32363F" stop-opacity=".24"/><stop offset="100%" stop-color="#32363F" stop-opacity=".64"/></linearGradient></defs><g fill="none" fill-rule="evenodd"><path fill="#F5F6F7" d="M85 63h344a8 8 0 0 1 8 8v160H77V71a8 8 0 0 1 8-8z"/><rect width="348" height="132" x="83" y="99" fill="#CBF7D8"/><rect width="192.5" height="23" x="117.5" y="69.5" fill="#FFFFFF" stroke="#D6D8DA" rx="4"/><g transform="translate(89 71)"><circle cx="10" cy="10" r="5" fill="url(#a)"/><path fill="url(#b)" d="M7.67 7.05c.66.65 2.35 1.32 2.35 1.4-.01.24-.87 1.07-1.16 1.07-2.76 0-3.2 1.67-3.2 1.67a4.1 4.1 0 0 0 2.72 3.37c.41.14.84.22 1.27.24 4.83.23 5.76-5.78 2.28-7.52.82-.1 1.65.1 2.33.57a4.9 4.9 0 0 0-4.24-2.48c-.12 0-.23 0-.34.02v-.07A7.1 7.1 0 0 1 12.9.07l.11-.07h.03c.01 0 .02.01.02.03l.1.3.05.08.1.2.23.37c1.49 2.35 3.3 3.45 4.4 6.06l.07.17V7.2a9.8 9.8 0 0 0-.98-2.94 5.44 5.44 0 0 1 1.94 2.45c.6 1.5.82 3.1.65 4.7l-.02.17-.04.37A9.7 9.7 0 0 1 .3 10.47v-.2c.02-.45.07-.9.16-1.34V8.9l.02-.1.07-.49.02-.08c.22-1 .64-1.96 1.21-2.81l.1-.13a8.48 8.48 0 0 1 1.84-1.9c.1-.07.21-.12.33-.17v.1c-.03.48-.02 1.8.3 2.29l.03.04a7.18 7.18 0 0 1 2.34-1.8c-.2.77-.2 1.6.03 2.36l.17.13.08.06.05.05c.14.12.3.28.61.6zm.13 7.25l.07.03.07.04-.07-.04-.07-.03z"/></g><path fill="#5D6165" d="M130.63 86.2v-6.52c0-.43.36-.8.8-.8h.82v-1.63a3.25 3.25 0 0 1 6.5 0v1.63h.81a.8.8 0 0 1 .81.8v6.51c0 .44-.36.81-.81.81h-8.12a.82.82 0 0 1-.82-.8zm3.25-8.54c0-1.12.72-2.03 1.62-2.03.9 0 1.63.9 1.63 2.03v1.22h-3.25v-1.22zm1.62 3.25a1.21 1.21 0 1 1 .6 2.27v2a.6.6 0 0 1-.6.6.61.61 0 0 1-.6-.6v-2a1.22 1.22 0 0 1 .6-2.27z"/><text fill="#32363F" font-family="Lato-Regular, Lato" font-size="12"><tspan x="146.19" y="85">https://</tspan></text><path fill="#95999D" d="M394 73.5c0-.83.67-1.5 1.5-1.5h21a1.5 1.5 0 1 1 0 3h-21a1.5 1.5 0 0 1-1.5-1.5zm0 15c0-.83.67-1.5 1.5-1.5h21a1.5 1.5 0 1 1 0 3h-21a1.5 1.5 0 0 1-1.5-1.5zm0-7.5c0-.83.67-1.5 1.5-1.5h21a1.5 1.5 0 1 1 0 3h-21A1.5 1.5 0 0 1 394 81z"/><path fill="#35CE68" d="M231.83 191.91a3.6 3.6 0 0 0-5.66 0 5.28 5.28 0 0 0 0 6.64l12 14.08a3.6 3.6 0 0 0 5.66 0l44-51.62a5.28 5.28 0 0 0 0-6.64 3.6 3.6 0 0 0-5.66 0L241 202.67l-9.17-10.76z"/><path fill="#D6D8DA" fill-rule="nonzero" d="M437 71a8 8 0 0 0-7.75-8H85a8 8 0 0 0-8 7.75V231h-2V71a10 10 0 0 1 9.72-10H429a10 10 0 0 1 10 9.72V231h-2V71z"/><g transform="translate(75 4.143)"><mask id="e" fill="white"><use xlink:href="#c"/></mask><g fill="url(#d)" mask="url(#e)"><polygon points=".857 .857 364.857 .857 365 132.857 1 132.857" transform="translate(-1 94)"/></g><g fill="url(#f)" mask="url(#e)" opacity=".6"><rect width="232" height="96" x=".86" y=".86" transform="translate(131 -2)"/></g></g><g transform="translate(73.857)"><g transform="translate(.143 .143)"><mask id="h" fill="white"><use xlink:href="#g"/></mask><g mask="url(#h)"><use fill="black" filter="url(#i)" xlink:href="#j"/><use fill="#FFFFFF" xlink:href="#j"/></g></g><g transform="translate(177 3)"><mask id="l" fill="white"><use xlink:href="#k"/></mask><use fill="#FFFFFF" xlink:href="#k"/><rect width="429.11" height="157.5" x="-135.61" y="115.55" fill="#CBF7D8" mask="url(#l)"/><g mask="url(#l)"><g transform="translate(-263.571 34.571)"><rect width="625" height="82" x=".71" y="1.43" fill="#F5F6F7"/><rect width="156" height="2" x="263.71" y=".43" fill="#D6D8DA" opacity=".64"/><rect width="325" height="58" x="1.71" y="14.43" fill="#FFFFFF" stroke="#D6D8DA" stroke-width="2" rx="12"/><g transform="translate(459.036 15.25)"><path fill="#F1F3F4" fill-rule="nonzero" d="M25.71 0a25.72 25.72 0 0 0 0 51.43 25.72 25.72 0 0 0 0-51.43z"/><path fill="#95999D" fill-rule="nonzero" d="M25.71 28.03c5.12 0 15.36 2.8 15.43 7.92a18.52 18.52 0 0 1-30.85 0c.07-5.12 10.28-7.92 15.42-7.92zm0-20.32a7.7 7.7 0 1 1 0 15.43 7.7 7.7 0 1 1 0-15.43z"/></g><path fill="#95999D" fill-rule="nonzero" d="M302.96 39.46l-6.75-.58-2.66-6.18a2 2 0 0 0-3.67 0l-2.66 6.2-6.73.56a2 2 0 0 0-1.13 3.51l5.09 4.36-1.54 6.5a2 2 0 0 0 2.97 2.18l5.83-3.47 5.84 3.48a2 2 0 0 0 2.97-2.18L299 47.33l5.1-4.36a2 2 0 0 0-1.13-3.51zM291.7 49.59l-6.01 3.58 1.6-6.76-5.31-4.54 7-.6 2.72-6.37 2.74 6.38 7 .6-5.3 4.55 1.6 6.76-6.04-3.6z"/><g transform="translate(341.714 21.286)"><path fill="#95999D" d="M14.83 42.14C6.65 42.14 0 35.64 0 27.65c0-3.8 1.5-7.4 4.23-10.13a14.88 14.88 0 0 1 8.83-4.25c.4-3.28 1.91-6.3 4.36-8.64A14.92 14.92 0 0 1 27.79.5c3.9 0 7.58 1.47 10.36 4.13a14.29 14.29 0 0 1 4.35 8.6c7.56.65 13.5 6.87 13.5 14.42 0 8-6.65 14.5-14.83 14.5H14.83z"/><path fill="#FFFFFF" stroke="#FFFFFF" d="M36.72 27.6a2.41 2.41 0 0 1-1.1-1.89.6.6 0 0 0-.63-.57.6.6 0 0 0-.61.6c0 .04.02.6.3 1.26a10.17 10.17 0 0 1-13.37.02c.3-.67.31-1.24.31-1.28a.6.6 0 0 0-.6-.6.61.61 0 0 0-.64.57c0 .05-.05 1.25-1.1 1.9a.57.57 0 0 0-.18.8.64.64 0 0 0 .86.17c.27-.16.5-.35.68-.56A11.32 11.32 0 0 0 28 30.68c2.63 0 5.27-.89 7.36-2.67.19.2.42.4.7.57a.64.64 0 0 0 .85-.17.57.57 0 0 0-.18-.8h0z"/></g></g></g><path fill="#FFFFFF" fill-rule="nonzero" d="M78.14 0a78 78 0 1 1 0 156 78 78 0 0 1 0-156zm0 2a76 76 0 1 0 0 152 76 76 0 0 0 0-152z" mask="url(#l)"/></g></g><rect width="360" height="48" x="77" y="183" fill="url(#m)" opacity="0" style="mix-blend-mode:multiply"/><rect width="512" height="1" y="231" fill="#D6D8DA"/></g></svg>