<svg xmlns="http://www.w3.org/2000/svg" viewBox="0 0 32 32"><g fill="none" fill-rule="evenodd"><path fill="#BFC3C7" d="M22 0h.28A10 10 0 0 1 32 9.72v.56A10 10 0 0 1 22.28 20h-.56a9.96 9.96 0 0 1-3.42-.7L7.18 30.77A4 4 0 0 1 4.3 32H2a2 2 0 0 1-2-2v-3.8c0-.45.18-.88.5-1.2l.05-.05a2 2 0 0 1 1.08-.56l.89-.14A1.77 1.77 0 0 0 4 22.5V22a1 1 0 0 1 1-1h.5c.83 0 1.5-.67 1.5-1.5V19a1 1 0 0 1 1-1h.75c.69 0 1.25-.56 1.25-1.25v-.42a2 2 0 0 1 .59-1.42l1.88-1.88A10 10 0 0 1 22 0zm.14 4c-.46 0-.93.05-1.39.17a2 2 0 0 0-1.04 3.25l.1.11 4.66 4.66a2 2 0 0 0 3.32-.8l.04-.14c.45-1.84 0-3.85-1.36-5.33l-.19-.2A5.83 5.83 0 0 0 22.42 4h-.28z"/><path fill="#95999D" d="M15.45 17.55c.54.47 1.13.89 1.77 1.23L4 32H2a2 2 0 0 1-.82-.18l14.27-14.27z"/><g transform="translate(8 24)"><rect width="24" height="8" fill="#297EF1" rx="1"/><path fill="#FFFFFF" d="M3.05 6.2V1.86h1.5c.28 0 .52.03.73.08.2.06.36.13.49.23s.22.23.28.37a1.22 1.22 0 0 1 .05.77.85.85 0 0 1-.14.26.85.85 0 0 1-.24.22c-.1.07-.21.12-.35.17.6.13.9.45.9.97a1.12 1.12 0 0 1-.41.91c-.14.11-.3.2-.5.26a2 2 0 0 1-.67.1H3.05zm.8-1.9v1.27h.83c.15 0 .27-.02.37-.05.1-.04.19-.09.25-.15s.1-.13.13-.2a.8.8 0 0 0 0-.52.48.48 0 0 0-.15-.19.66.66 0 0 0-.24-.12 1.3 1.3 0 0 0-.37-.04h-.81zm0-.56h.65c.28 0 .48-.05.63-.15.14-.1.21-.26.21-.48 0-.22-.06-.38-.2-.48-.12-.1-.32-.14-.6-.14h-.68v1.25zm7.05-1.88v.64H8.97v1.2h1.52v.63H8.97v1.23h1.93v.64H8.16V1.86h2.74zm4.95 0v.67h-1.3V6.2h-.81V2.53h-1.31v-.67h3.42zm5.53 4.34h-.63a.27.27 0 0 1-.27-.18l-.32-.89h-1.8l-.32.89a.28.28 0 0 1-.27.18h-.62l1.7-4.34h.82l1.7 4.34zm-2.81-1.64h1.38l-.52-1.44a6.59 6.59 0 0 1-.17-.51 10 10 0 0 1-.16.52l-.53 1.43z"/></g></g></svg>